<mxfile host="app.diagrams.net" modified="2023-04-26T06:29:36.165Z" agent="Mozilla/5.0 (Macintosh; Intel Mac OS X 10_15_7) AppleWebKit/537.36 (KHTML, like Gecko) Chrome/105.0.0.0 Safari/537.36" version="21.2.2" etag="FKoeeDwC38Gel7xmVRtM" type="github">
  <diagram name="第 1 页" id="0TylZSjd6-EgJ9BiYOC2">
    <mxGraphModel>
      <root>
        <mxCell id="0" />
        <mxCell id="1" parent="0" />
      </root>
    </mxGraphModel>
  </diagram>
</mxfile>
